<svg version="1.1" id="Layer_1" xmlns="http://www.w3.org/2000/svg" xmlns:xlink="http://www.w3.org/1999/xlink" x="0px" y="0px"
	 width="100%" viewBox="0 0 227 310" enable-background="new 0 0 227 310" xml:space="preserve">
<path fill="#FCFCFC" opacity="1.000000" stroke="none" 
	d="
M116.000000,311.000000 
	C77.333336,311.000000 39.166668,311.000000 1.000000,311.000000 
	C1.000000,207.666672 1.000000,104.333336 1.000000,1.000000 
	C76.666664,1.000000 152.333328,1.000000 228.000000,1.000000 
	C228.000000,104.333336 228.000000,207.666672 228.000000,311.000000 
	C190.833328,311.000000 153.666672,311.000000 116.000000,311.000000 
M80.547081,220.999710 
	C79.880814,220.999710 79.214539,220.999710 78.548271,220.999710 
	C65.687210,220.999725 61.011532,227.418076 65.027412,239.747299 
	C66.370041,243.869293 68.889168,246.131943 73.793716,246.094009 
	C99.612328,245.894348 125.435280,246.172379 151.252014,245.875092 
	C157.377655,245.804550 160.066406,250.039062 160.003967,255.858749 
	C159.939850,261.836609 156.935028,264.996979 151.231964,264.997589 
	C120.081200,265.001038 88.929588,265.129395 57.780128,264.927551 
	C47.228710,264.859192 47.135666,267.185181 45.339420,275.629608 
	C43.509037,284.234528 48.530704,290.000031 57.109383,290.000122 
	C88.260155,290.000549 119.410927,290.007812 150.561676,289.980835 
	C152.365051,289.979248 154.235123,289.953583 155.960342,289.503235 
	C165.479126,287.018219 174.380707,275.602112 174.891479,264.244751 
	C175.332016,254.448975 176.126144,244.465866 170.920319,235.306091 
	C170.242783,234.113953 170.779221,231.970947 171.266891,230.431015 
	C172.329025,227.077011 174.616440,223.880676 174.814545,220.526093 
	C175.435715,210.007751 175.842941,199.415421 170.170044,189.721817 
	C166.105255,182.776077 161.226868,177.628738 152.355179,177.660110 
	C119.705597,177.775543 87.055267,177.738464 54.405434,177.664429 
	C49.795486,177.653976 47.088116,180.144257 46.240246,184.083237 
	C45.502232,187.511871 45.535851,191.295792 46.112423,194.776276 
	C47.113693,200.820480 48.907303,201.998230 54.944206,201.998901 
	C87.094467,202.002426 119.245613,202.118683 151.394058,201.877045 
	C156.405716,201.839386 160.132492,205.847855 160.031631,211.673340 
	C159.927597,217.682404 156.949905,221.232971 151.494797,221.150024 
	C128.178772,220.795471 104.854240,220.999451 80.547081,220.999710 
M65.990898,67.560341 
	C63.315006,71.804657 60.641357,76.050400 57.962811,80.293037 
	C50.124943,92.707680 42.322498,105.144905 34.434296,117.527481 
	C28.087126,127.491013 21.449133,137.274506 15.306928,147.361221 
	C12.146917,152.550583 9.710399,158.211670 11.259885,165.603210 
	C12.858804,161.824982 13.705407,158.807465 15.293395,156.250366 
	C21.729464,145.886459 28.418337,135.679916 34.968174,125.386215 
	C48.494133,104.128853 61.937210,82.818527 75.525017,61.600849 
	C81.230537,52.691532 86.849075,43.686756 93.179741,35.228802 
	C99.412392,26.901815 111.366730,23.630844 119.526978,34.954945 
	C125.238365,42.880714 130.144348,51.390945 135.334869,59.687172 
	C147.921112,79.804199 160.528610,99.908440 172.998474,120.097549 
	C180.227539,131.801636 187.308243,143.600891 194.234314,155.486343 
	C196.216080,158.887146 198.532181,162.695419 198.676605,166.395615 
	C198.821686,170.112778 196.450562,173.928162 194.932205,178.443741 
	C198.525803,177.694183 202.562607,176.819565 206.613098,176.013718 
	C216.808670,173.985306 222.226059,164.387894 217.809433,155.209320 
	C213.254807,145.743958 207.564819,136.809128 202.132141,127.786346 
	C196.248764,118.015030 189.989670,108.470360 184.076172,98.716660 
	C177.610153,88.051598 171.446198,77.203316 164.973633,66.542328 
	C159.839035,58.085094 154.378220,49.826622 149.170593,41.412842 
	C143.585510,32.389236 138.432892,23.078039 132.449585,14.331500 
	C130.319778,11.218112 126.646973,8.225565 123.092972,7.192801 
	C111.477982,3.817570 106.217369,6.588484 99.981689,15.645455 
	C88.395851,32.473217 77.618477,49.857590 65.990898,67.560341 
z"/>
<path fill="#000101" opacity="1.000000" stroke="none" 
	d="
M81.039948,220.999710 
	C104.854240,220.999451 128.178772,220.795471 151.494797,221.150024 
	C156.949905,221.232971 159.927597,217.682404 160.031631,211.673340 
	C160.132492,205.847855 156.405716,201.839386 151.394058,201.877045 
	C119.245613,202.118683 87.094467,202.002426 54.944206,201.998901 
	C48.907303,201.998230 47.113693,200.820480 46.112423,194.776276 
	C45.535851,191.295792 45.502232,187.511871 46.240246,184.083237 
	C47.088116,180.144257 49.795486,177.653976 54.405434,177.664429 
	C87.055267,177.738464 119.705597,177.775543 152.355179,177.660110 
	C161.226868,177.628738 166.105255,182.776077 170.170044,189.721817 
	C175.842941,199.415421 175.435715,210.007751 174.814545,220.526093 
	C174.616440,223.880676 172.329025,227.077011 171.266891,230.431015 
	C170.779221,231.970947 170.242783,234.113953 170.920319,235.306091 
	C176.126144,244.465866 175.332016,254.448975 174.891479,264.244751 
	C174.380707,275.602112 165.479126,287.018219 155.960342,289.503235 
	C154.235123,289.953583 152.365051,289.979248 150.561676,289.980835 
	C119.410927,290.007812 88.260155,290.000549 57.109383,290.000122 
	C48.530704,290.000031 43.509037,284.234528 45.339420,275.629608 
	C47.135666,267.185181 47.228710,264.859192 57.780128,264.927551 
	C88.929588,265.129395 120.081200,265.001038 151.231964,264.997589 
	C156.935028,264.996979 159.939850,261.836609 160.003967,255.858749 
	C160.066406,250.039062 157.377655,245.804550 151.252014,245.875092 
	C125.435280,246.172379 99.612328,245.894348 73.793716,246.094009 
	C68.889168,246.131943 66.370041,243.869293 65.027412,239.747299 
	C61.011532,227.418076 65.687210,220.999725 78.548271,220.999710 
	C79.214539,220.999710 79.880814,220.999710 81.039948,220.999710 
z"/>
<path fill="#269017" opacity="1.000000" stroke="none" 
	d="
M66.247711,67.285286 
	C77.618477,49.857590 88.395851,32.473217 99.981689,15.645455 
	C106.217369,6.588484 111.477982,3.817570 123.092972,7.192801 
	C126.646973,8.225565 130.319778,11.218112 132.449585,14.331500 
	C138.432892,23.078039 143.585510,32.389236 149.170593,41.412842 
	C154.378220,49.826622 159.839035,58.085094 164.973633,66.542328 
	C171.446198,77.203316 177.610153,88.051598 184.076172,98.716660 
	C189.989670,108.470360 196.248764,118.015030 202.132141,127.786346 
	C207.564819,136.809128 213.254807,145.743958 217.809433,155.209320 
	C222.226059,164.387894 216.808670,173.985306 206.613098,176.013718 
	C202.562607,176.819565 198.525803,177.694183 194.932205,178.443741 
	C196.450562,173.928162 198.821686,170.112778 198.676605,166.395615 
	C198.532181,162.695419 196.216080,158.887146 194.234314,155.486343 
	C187.308243,143.600891 180.227539,131.801636 172.998474,120.097549 
	C160.528610,99.908440 147.921112,79.804199 135.334869,59.687172 
	C130.144348,51.390945 125.238365,42.880714 119.526978,34.954945 
	C111.366730,23.630844 99.412392,26.901815 93.179741,35.228802 
	C86.849075,43.686756 81.230537,52.691532 75.525017,61.600849 
	C61.937210,82.818527 48.494133,104.128853 34.968174,125.386215 
	C28.418337,135.679916 21.729464,145.886459 15.293395,156.250366 
	C13.705407,158.807465 12.858804,161.824982 11.259885,165.603210 
	C9.710399,158.211670 12.146917,152.550583 15.306928,147.361221 
	C21.449133,137.274506 28.087126,127.491013 34.434296,117.527481 
	C42.322498,105.144905 50.124943,92.707680 57.962811,80.293037 
	C60.641357,76.050400 63.315006,71.804657 66.247711,67.285286 
z"/>
</svg>